<?xml version="1.0" encoding="UTF-8"?>
<svg width="512" height="512" viewBox="0 0 512 512" xmlns="http://www.w3.org/2000/svg">
  <defs>
    <linearGradient id="bitcoinGradient" x1="0%" y1="0%" x2="100%" y2="100%">
      <stop offset="0%" style="stop-color:#f7931a"/>
      <stop offset="100%" style="stop-color:#ff8f00"/>
    </linearGradient>
    <linearGradient id="screenGradient1" x1="0%" y1="0%" x2="100%" y2="100%">
      <stop offset="0%" style="stop-color:#2196f3"/>
      <stop offset="100%" style="stop-color:#03a9f4"/>
    </linearGradient>
    <linearGradient id="screenGradient2" x1="0%" y1="0%" x2="100%" y2="100%">
      <stop offset="0%" style="stop-color:#3f51b5"/>
      <stop offset="100%" style="stop-color:#673ab7"/>
    </linearGradient>
    <linearGradient id="serverGradient" x1="0%" y1="0%" x2="100%" y2="100%">
      <stop offset="0%" style="stop-color:#4285f4"/>
      <stop offset="100%" style="stop-color:#2979ff"/>
    </linearGradient>
  </defs>
  
  <!-- Left Screen -->
  <g transform="translate(50, 100)">
    <rect x="0" y="0" width="150" height="120" rx="10" fill="#2c3e50" stroke="#34495e" stroke-width="8"/>
    <!-- Lines representing data -->
    <path d="M20,30 C40,30 50,50 70,50" stroke="#4caf50" stroke-width="3" fill="none"/>
    <path d="M20,50 C40,50 50,70 70,70" stroke="#f44336" stroke-width="3" fill="none"/>
    <path d="M20,70 C40,70 50,90 70,90" stroke="#ffeb3b" stroke-width="3" fill="none"/>
    <!-- Connection points -->
    <circle cx="20" cy="30" r="4" fill="#4caf50"/>
    <circle cx="70" cy="50" r="4" fill="#4caf50"/>
    <circle cx="20" cy="50" r="4" fill="#f44336"/>
    <circle cx="70" cy="70" r="4" fill="#f44336"/>
    <circle cx="20" cy="70" r="4" fill="#ffeb3b"/>
    <circle cx="70" cy="90" r="4" fill="#ffeb3b"/>
  </g>
  
  <!-- Right Screen -->
  <g transform="translate(312, 100)">
    <rect x="0" y="0" width="150" height="120" rx="10" fill="#2c3e50" stroke="#34495e" stroke-width="8"/>
    <!-- Circular chart -->
    <circle cx="75" cy="60" r="40" fill="none" stroke="#673ab7" stroke-width="4"/>
    <circle cx="75" cy="60" r="32" fill="none" stroke="#3f51b5" stroke-width="4"/>
    <circle cx="75" cy="60" r="24" fill="none" stroke="#2196f3" stroke-width="4"/>
    <circle cx="75" cy="60" r="16" fill="none" stroke="#00bcd4" stroke-width="4"/>
    <circle cx="75" cy="60" r="8" fill="none" stroke="#009688" stroke-width="4"/>
  </g>
  
  <!-- Bitcoin Cylinder -->
  <g transform="translate(206, 160)">
    <!-- Cylinder base -->
    <ellipse cx="50" cy="120" rx="40" ry="15" fill="#e0e0e0" opacity="0.7"/>
    <!-- Cylinder body -->
    <rect x="10" y="60" width="80" height="60" fill="#ffcdd2"/>
    <!-- Cylinder top -->
    <ellipse cx="50" cy="60" rx="40" ry="15" fill="#f7931a"/>
    <!-- Bitcoin symbol -->
    <path d="M65,80 C65,73.5 60,70 55,70 C60,70 65,66.5 65,60 C65,53.5 58.5,50 50,50 L50,45 L45,45 L45,50 L40,50 L40,45 L35,45 L35,50 L30,50 L30,70 L35,70 L35,90 L30,90 L30,110 L35,110 L35,115 L40,115 L40,110 L45,110 L45,115 L50,115 L50,110 C58.5,110 65,106.5 65,100 C65,93.5 60,90 55,90 C60,90 65,86.5 65,80 Z M40,70 L40,60 L50,60 C52.5,60 55,61.5 55,65 C55,68.5 52.5,70 50,70 L40,70 Z M40,90 L40,80 L50,80 C52.5,80 55,81.5 55,85 C55,88.5 52.5,90 50,90 L40,90 Z" fill="#7b1fa2"/>
    <!-- Glow effect -->
    <ellipse cx="50" cy="60" rx="40" ry="15" fill="url(#bitcoinGradient)" opacity="0.5"/>
  </g>
  
  <!-- Left Server -->
  <g transform="translate(80, 320)">
    <rect x="0" y="0" width="100" height="80" rx="5" fill="url(#serverGradient)"/>
    <!-- Server details -->
    <rect x="15" y="15" width="70" height="10" rx="2" fill="white" opacity="0.7"/>
    <rect x="15" y="35" width="70" height="10" rx="2" fill="white" opacity="0.7"/>
    <rect x="15" y="55" width="70" height="10" rx="2" fill="white" opacity="0.7"/>
    <!-- Server dots -->
    <circle cx="10" cy="20" r="2" fill="red"/>
    <circle cx="10" cy="40" r="2" fill="red"/>
    <circle cx="10" cy="60" r="2" fill="red"/>
  </g>
  
  <!-- Right Server -->
  <g transform="translate(332, 320)">
    <rect x="0" y="0" width="100" height="80" rx="5" fill="url(#serverGradient)"/>
    <!-- Server details -->
    <rect x="15" y="15" width="70" height="10" rx="2" fill="white" opacity="0.7"/>
    <rect x="15" y="35" width="70" height="10" rx="2" fill="white" opacity="0.7"/>
    <rect x="15" y="55" width="70" height="10" rx="2" fill="white" opacity="0.7"/>
    <!-- Server dots -->
    <circle cx="10" cy="20" r="2" fill="red"/>
    <circle cx="10" cy="40" r="2" fill="red"/>
    <circle cx="10" cy="60" r="2" fill="red"/>
  </g>
  
  <!-- Connection Lines -->
  <path d="M125,220 C125,250 130,280 130,320" stroke="#34495e" stroke-width="4" fill="none"/>
  <path d="M256,220 C256,250 130,280 130,320" stroke="#34495e" stroke-width="4" fill="none"/>
  <path d="M256,220 C256,250 382,280 382,320" stroke="#34495e" stroke-width="4" fill="none"/>
  <path d="M387,220 C387,250 382,280 382,320" stroke="#34495e" stroke-width="4" fill="none"/>
</svg>
