<?xml version="1.0" encoding="UTF-8"?>
<svg width="200" height="200" viewBox="0 0 200 200" xmlns="http://www.w3.org/2000/svg">
  <defs>
    <linearGradient id="phoenixGradient" x1="0%" y1="0%" x2="100%" y2="100%">
      <stop offset="0%" style="stop-color:#ff9900"/>
      <stop offset="100%" style="stop-color:#ff5500"/>
    </linearGradient>
    <linearGradient id="btcGradient" x1="0%" y1="0%" x2="100%" y2="100%">
      <stop offset="0%" style="stop-color:#f7931a"/>
      <stop offset="100%" style="stop-color:#ff8f00"/>
    </linearGradient>
  </defs>
  <g transform="translate(20, 20)">
    <!-- Phoenix Wings -->
    <path d="M80 0C35.817 0 0 35.817 0 80c0 44.183 35.817 80 80 80 44.183 0 80-35.817 80-80C160 35.817 124.183 0 80 0zm0 150c-38.66 0-70-31.34-70-70s31.34-70 70-70 70 31.34 70 70-31.34 70-70 70z" fill="url(#phoenixGradient)"/>
    <path d="M80 20c-33.137 0-60 26.863-60 60s26.863 60 60 60c33.137 0 60-26.863 60-60S113.137 20 80 20zm0 100c-22.091 0-40-17.909-40-40s17.909-40 40-40 40 17.909 40 40-17.909 40-40 40z" fill="url(#btcGradient)" opacity="0.8"/>
    <!-- Bitcoin Symbol -->
    <path d="M95 70c0-8.284-6.716-15-15-15v-10h-10v10h-10v-10h-10v10h-10v60h10v10h10v-10h10v10h10v-10c8.284 0 15-6.716 15-15 0-4.142-1.679-7.889-4.393-10.607 2.714-2.718 4.393-6.465 4.393-10.607zM75 65h-15v-10h15c2.761 0 5 2.239 5 5s-2.239 5-5 5zm0 30h-15v-10h15c2.761 0 5 2.239 5 5s-2.239 5-5 5z" fill="#ffffff"/>
  </g>
</svg>